
<svg width="27" height="29" viewBox="0 0 27 29" fill="none" xmlns="http://www.w3.org/2000/svg">
<path fill-rule="evenodd" clip-rule="evenodd" d="M21.1445 5.17785H9.63342V0.294373L26.028 0.294373V16.6889H21.1445V5.17785Z" fill="#FFC01E"/>
<path fill-rule="evenodd" clip-rule="evenodd" d="M12.1529 14.8951C11.4072 14.3968 10.5305 14.1309 9.63359 14.1309V9.24741C11.4963 9.24741 13.3172 9.79977 14.866 10.8346C16.4148 11.8695 17.622 13.3404 18.3348 15.0614C19.0477 16.7823 19.2342 18.676 18.8708 20.5029C18.5074 22.3299 17.6104 24.008 16.2932 25.3252C14.9761 26.6423 13.2979 27.5393 11.471 27.9027C9.64403 28.2661 7.75035 28.0796 6.02941 27.3668C4.30847 26.6539 2.83756 25.4468 1.80269 23.898C0.767812 22.3492 0.215451 20.5283 0.215454 18.6655L5.09893 18.6655C5.09893 19.5624 5.36488 20.4391 5.86316 21.1849C6.36143 21.9306 7.06965 22.5118 7.89825 22.855C8.72685 23.1982 9.63862 23.288 10.5183 23.1131C11.3979 22.9381 12.2059 22.5062 12.8401 21.872C13.4743 21.2379 13.9061 20.4299 14.0811 19.5502C14.2561 18.6706 14.1663 17.7588 13.8231 16.9302C13.4799 16.1016 12.8986 15.3934 12.1529 14.8951Z" fill="#1FCB4F"/>
</svg>
