<svg width="21" height="21" viewBox="0 0 21 21" fill="none" xmlns="http://www.w3.org/2000/svg">
<path d="M15.2474 2.1192L5.25569 2.1192C3.87351 2.1192 2.75777 3.22661 2.75777 4.59214L2.75777 13.6762C2.75777 15.0418 3.87351 16.1492 5.25569 16.1492H5.88849C6.5546 16.1492 7.18741 16.4073 7.65369 16.8736L9.0775 18.2807C9.72696 18.9219 10.7844 18.9219 11.4339 18.2807L12.8577 16.8736C13.324 16.4073 13.9651 16.1492 14.6229 16.1492H15.2474C16.6295 16.1492 17.7453 15.0418 17.7453 13.6762V4.59214C17.7453 3.22661 16.6295 2.1192 15.2474 2.1192ZM10.2515 5.2416C11.3256 5.2416 12.1916 6.10754 12.1916 7.18165C12.1916 8.25575 11.3256 9.12169 10.2515 9.12169C9.17742 9.12169 8.31147 8.24742 8.31147 7.18165C8.31147 6.10754 9.17742 5.2416 10.2515 5.2416ZM12.483 12.9935H8.02005C7.34561 12.9935 6.95427 12.2441 7.32896 11.6862C7.89515 10.8453 8.99424 10.2791 10.2515 10.2791C11.5088 10.2791 12.6079 10.8453 13.1741 11.6862C13.5488 12.2441 13.1491 12.9935 12.483 12.9935Z" fill="#1FCB4F"/>
</svg>
