<svg width="21" height="21" viewBox="0 0 21 21" fill="none" xmlns="http://www.w3.org/2000/svg">
<path d="M5.25589 5.08156C4.91451 5.08156 4.63141 4.79847 4.63141 4.45709V2.99997C4.63141 2.65859 4.91451 2.37549 5.25589 2.37549C5.59727 2.37549 5.88037 2.65859 5.88037 2.99997V4.45709C5.88037 4.80679 5.59727 5.08156 5.25589 5.08156Z" fill="#1FCB4F"/>
<path d="M8.58645 5.08156C8.24507 5.08156 7.96197 4.79847 7.96197 4.45709V2.99997C7.96197 2.65859 8.24507 2.37549 8.58645 2.37549C8.92783 2.37549 9.21093 2.65859 9.21093 2.99997V4.45709C9.21093 4.80679 8.92783 5.08156 8.58645 5.08156Z" fill="#1FCB4F"/>
<path d="M11.917 5.08156C11.5756 5.08156 11.2925 4.79847 11.2925 4.45709V2.99997C11.2925 2.65859 11.5756 2.37549 11.917 2.37549C12.2584 2.37549 12.5415 2.65859 12.5415 2.99997V4.45709C12.5415 4.80679 12.2584 5.08156 11.917 5.08156Z" fill="#1FCB4F"/>
<path d="M18.7863 11.8509C18.7863 9.66939 17.096 7.9042 14.9645 7.72102C14.3483 6.71353 13.2492 6.03076 11.9836 6.03076H5.84707C3.91534 6.03076 2.34166 7.60445 2.34166 9.53617V9.97747H15.489V9.53617C15.489 9.37797 15.464 9.21977 15.4391 9.06989C16.6464 9.42793 17.5373 10.527 17.5373 11.8509C17.5373 13.1582 16.6714 14.2489 15.489 14.6153V10.8101H2.34166L2.34166 15.6311C2.34166 17.5628 3.91534 19.1365 5.84707 19.1365H11.9836C13.8154 19.1365 15.3058 17.721 15.4557 15.9225C17.3541 15.5395 18.7863 13.8576 18.7863 11.8509Z" fill="#1FCB4F"/>
</svg>
