<svg width="21" height="21" viewBox="0 0 21 21" fill="none" xmlns="http://www.w3.org/2000/svg">
<path d="M13.5823 10.8068V15.2947C13.5823 17.2431 12.2834 18.5337 10.3433 18.5337H5.1643C3.22425 18.5337 1.92534 17.2431 1.92534 15.2947L1.92534 8.82513C1.92534 6.87676 3.22425 5.58617 5.1643 5.58617H8.35331C9.21093 5.58617 10.0352 5.92755 10.6431 6.53537L12.6331 8.51706C13.2409 9.12488 13.5823 9.94919 13.5823 10.8068Z" fill="#1FCB4F"/>
<path d="M18.5781 7.10983V11.5978C18.5781 13.5378 17.2792 14.8367 15.3392 14.8367H14.4149V10.8067C14.4149 9.73264 13.982 8.68352 13.2243 7.92582L11.2343 5.94414C10.4766 5.18644 9.42743 4.75346 8.35333 4.75346H6.93784C7.08771 3.02157 8.345 1.88086 10.1602 1.88086L13.3492 1.88086C14.2068 1.88086 15.0311 2.22224 15.6389 2.83007L17.6289 4.82007C18.2367 5.4279 18.5781 6.25221 18.5781 7.10983Z" fill="#1FCB4F"/>
</svg>
